<?xml version="1.0" encoding="UTF-8"?>
<svg xmlns="http://www.w3.org/2000/svg" viewBox="0 0 900.89 719.95">
  <defs>
    <style>
      .cls-1 {
        fill: #cf847c;
      }

      .cls-2 {
        fill: #fff;
      }

      .cls-3 {
        fill: #42210b;
      }

      .cls-4 {
        fill: #ffdd3d;
      }

      .cls-5 {
        fill: #54324a;
      }
    </style>
  </defs>
  <g id="Layer_2" data-name="Layer 2">
    <path class="cls-5" d="M149.68,193.92c-1.2-8.87-1.99-21.34,0-36,0,0,2.95-21.72,13-42,22.14-44.67,78.74-75.96,133-82,20.34-2.27,37.24-.64,48,1,11.14-8.62,27.5-18.82,49-25,13.31-3.83,30.64-8.59,52-4,10.37,2.23,18.51,5.98,24,9,11.58-3.75,29.16-8.39,51-10,25.1-1.85,45.22-3.34,65,8,6.73,3.86,23.34,14.88,34,41,4.79-1.6,12.05-3.54,21-4,26.72-1.37,46.62,11.59,58,19,11.88,7.73,22.63,14.73,30,29,6.59,12.75,7.22,25,7,32,5.63,1.3,13.81,3.64,23,8,26.9,12.77,63.77,43.53,62,82-.31,6.74-1.99,17.85-10,31,5.55,6.99,14.24,17.36,26,29,8.84,8.75,11.96,10.85,16,15,21.51,22.09,22.91,54.84,23,58,1.27,42.95-30.79,70.5-35,74,8.01,2.21,31.84,9.9,47,33,17.71,26.99,11.45,56.49,9,68-14.71,69.24-99.38,96.94-106,99-7.05,11.82-20.06,29.89-42,44-29.93,19.25-59.45,20.17-86,21-22.56.7-59.97-1.11-104-18-15.24,13.37-43.73,34.24-83,41-4.05.7-19.17,3.13-39,2-13.16-.75-34.84-2.2-59-14-13.86-6.77-24.13-14.8-31-21-18.39,9.1-47.98,20.27-85,20-17.47-.13-43.35-.31-71-16-24.62-13.97-38.48-33.32-45-44-7.83,1.83-19.21,3.85-33,4-17.88.19-32.32.35-46-7-34.15-18.35-36.74-69.09-37-76-.39-10.47.84-19.15,2-25-10.62-7.89-17.01-16.34-21-24-22.17-42.57,4.15-109.87,64-169-2.91-8-6.39-20.58-6-36,.66-26.22,12.09-44.35,27-68,17.29-27.43,30.61-35.9,36-39,7.41-4.26,14.2-6.64,19-8Z"/>
  </g>
  <g id="Layer_1" data-name="Layer 1">
    <path class="cls-3" d="M697.83,408.41l-27.34,38c-47.95,53.71-114.58,86.94-187.15,89.71-82.16,3.13-147.29-10.15-212.18-61.71-19.39-15.41-33.5-34.57-42.17-57.87l-4.63,20.82c-7.84,26.34-25.77,64.18-59.77,52.06-14.52-5.18-25.05-21.28-26.39-36.36-3.36-37.85,21.73-69.93,48.71-93.05-8.47-14.09-16.81-30.42-17.75-47.16-.57-10.25.94-26.01,5.54-35.13,3.35-6.64,12.25-16.08,19.96-16.95,14.01-1.59,22.3,3.6,30.63,14.03,2.47-13.76,4.15-27.82,7.75-41.35,6.14-23.05,14.62-39.28,17.37-63.83s28.95-51.83,54.24-52.83c4.53-.18,6.14,1.32,6.29,5.93-.84.09-1.28.42-2.19.29-16.49-2.33-39.62,15.15-47.4,29.49-6.03,11.11-10.31,32.02-.24,41.83,10.64,10.36,42.54,13.72,56.64,11.61,9.37-1.4,17.41-6.82,26.65-8.55l3.31,4.13c-2.58,24.19,5.67,41.44,32.26,40.05,13.46-.7,19.96-7.21,30.61-9.25,8.31-1.59,9.7,6.51,14.08,11.83,20.64,25.05,58.9,4.98,74.43-16.35,1.23-1.69,5.92-10.3,6.5-10.5,4.02-1.41,6.95,5.48,9.72,8.03,7.28,6.72,22.34,13.7,32.29,14.03,22.8.75,66.17-26.47,73.06-48.74,1.52-4.93.17-5.54-.01-9.52s5.68-1.09,7.48-.86c12.41,1.58,32.66-12.68,38.85-23.05,3.22-5.39,5.97-13.63,2.96-19.48-3.58-6.96-28.38-23.44-36.27-23.5-1.1,0-1.93,1.11-3.37,1.19-4.26.26-6.46-2.28-7.76-5.96,5.4-1.55,10.65-.86,15.9.7,10.38,3.09,33.38,19.21,36.87,29.57,1.51,4.49,1.1,9.34,2.37,13.87,5.79,20.59,18.85,44.45,26.09,65.45,4.63,13.43,7.43,27.47,11.81,40.98,9.8-9.64,18.74-14.78,31.96-7.24,5.77,3.29,7.73,8.22,9.17,14.46,3.24,14.06,1.66,31.03-2.93,44.65-2.75,8.18-8.04,14.96-10.92,23.04,10.89,15.81,22.45,34.68,28.1,53.16,5.23,17.09,6.57,45.44-8.52,57.95-14.86,12.32-38.71,14.01-52.8-.33-4.16-4.23-11.79-17.12-11.79-22.91v-14.4ZM651.8,458.35c18.34-17.23,42.23-51.8,52.57-74.78,26.41-58.65,14.19-105.91-5.05-163.79-7.1-21.36-17.58-42.53-25.12-63.84l-6.62,9.98c-10.37,10.53-25.75,21.84-41.36,18.81.77,7-2.62,13.48-6.35,19.13-11.42,17.28-41.06,36.15-61.43,39.71-19.68,3.44-36.41-7.03-50.35-19.71-14.46,28.89-60.38,52.26-85.68,23.27-1.73-1.98-6.41-9.81-7.75-10.02-3.02-.47-14.62,5.83-18.8,7.06-10.81,3.17-24.95,4.15-35.21-.98-13.11-6.56-19.71-25.36-18.7-39.25-11.67,4.22-21.59,8.23-34.36,8.15-19.53-.13-41.84-4.55-53.33-21.21-.45-.65.12-1.36-1.64-.96-7.37,24.11-15.41,46.44-19.71,71.47-7.15,41.67-13.22,121.96,3.45,160.71,13.53,31.45,35.34,49.23,62.97,67.7,39.63,26.48,89.86,40.66,137.46,42.68,85.01,3.61,152.73-15.62,214.99-74.11ZM736.23,330.15c.66.45,1.89-.1,2.57-.74.92-.86,7.3-13.5,8.11-15.51,5.6-13.96,8.17-36.86,3.17-51.13-2.66-7.6-9.45-10.93-17.22-8.69-4.27,1.23-14.1,9.24-14.41,13.71-.3,4.34,3.36,14.34,4.26,19.4,4.03,22.57,2.62,45-1.99,67.33,2.4-2.12,10.25-10.68,9.49-13.49-.32-1.16-2.67-2.79-3.18-4.26-1.41-4.1,1.9-15.32,7.53-12.71,2.81,1.31.22,5.1,1.67,6.09ZM221.61,379.62c-.33-18.28-1.32-36.66-.77-55.03.36-11.96,2.83-25.35,3.01-36.92.15-9.74-10.72-22.25-20.42-23.12-25.97-2.34-30.5,35.31-28.15,53.97,1.63,12.96,9.43,26.1,15.33,37.46.61.42,7.3-4.95,7.78-5.91.9-1.82-4.04-4.1-.69-5.1,2.72-.82,10.65,6.16,12.15,8.42,2.08,3.12-4.07,5.04-6.35,7.01-.91.79-4.91,4.92-4.46,5.92,5.92,6.66,13.5,12.4,22.57,13.29ZM738.69,338.77c-1.86-2.2-2.58-5.15-5.79-6.39-1.71,5.4,3.41,8.88,5.69,12.77,8.77,14.98,18.23,54.71,16.09,71.75-3.15,25.06-22.32,30.78-36.77,9.46-6.06-8.94-8.31-19.65-12.69-29.39l-1.39,4.53c-6.78,29.65,16.01,63.5,48.14,45.92,21.21-11.61,19.15-43.01,12.12-62.8-5.14-14.49-15.63-34.28-25.4-45.84ZM734,347.87c-3.47,3.56-6.31,7.65-9.94,11.09-1.87,1.78-4.89,2.83-6.2,4.88-1.04,1.62-7.91,19.82-8.61,22.4-.23.86-.51,1.68-.4,2.59,5.3,13.69,9.1,33.53,21.53,42.76,8.03,5.97,13.15,4.42,16.53-4.75,8.61-23.38-5.27-56.53-12.91-78.97ZM164.29,463.51c-19.43-19.47,6.94-71.3,20.55-89.29,4.34-5.74,10.37-10.28,13.15-16.75-13.49,10.88-26.05,23.17-36.03,37.42-15.32,21.85-26.13,51.82-11.34,76.76,8.87,14.95,25.72,21.58,40.98,11.19,21.71-14.78,37.26-68.51,31.29-93.05-.18-.74-.21-2.22-1.25-2.05-4.54,24.06-12.1,48.86-27.02,68.59-7.35,9.71-19.53,17.99-30.31,7.18ZM217.19,383.31c-8.5-1.95-16.06-6.77-21.78-13.28-14.77,18.75-30.24,44.64-32.11,69.02-1.48,19.34,8.21,36.21,25.07,16.21,16.6-19.7,22.88-47.54,28.82-71.95Z"/>
    <path class="cls-3" d="M600.8,21.16c8.79,8,14.13,18.87,18.06,29.95,20.25-5.93,44.39-2.14,63.44,6.31,14.55,6.45,41.97,25.33,48.88,39.71,4.54,9.45,5.32,20.5,7.35,30.67,19.43,2.94,35.9,14.93,50.12,27.77,20.92,18.9,35.72,39.65,34.65,69.44-.46,12.82-6.46,15.68-10.71,25.43-1.33,3.05-.17,3.77,2.28,5.89,8.01,6.95,14.95,10.69,22.88,19.2,30.44,32.64,48.52,67,35.58,113.11-4.87,17.36-17.44,28.56-30.05,40.44,19.51,3.44,35.51,17.35,45.35,34.02,25.3,42.88,9.08,96.99-26.88,128.03-17.53,15.13-35.23,21.45-54.66,32.46-24.14,13.68-38.12,39.1-61.99,52.44-40.92,22.88-103.52,22.85-148.43,13.28-12.31-2.62-25.75-6.29-36.55-12.75-22.9,24.77-57.47,39.11-90.9,42.54-32.6,3.35-69.25-3.45-99.19-16.54-9.37-4.1-21.27-10.05-25.88-19.53l-1.52.47c-4.64,6.58-16.05,10-23.74,12.27-46.66,13.8-117.38,15.24-152.3-23.81-4.39-4.91-18.6-25.57-23.21-26.99-4.81-1.49-21.35,2.82-27.74,3.35-54.27,4.52-83.34-28.19-87.47-80.09-.65-8.11.34-19.09-.71-26.61-.23-1.63-1.51-2.85-1.53-3.66-.08-3.61,4.45-.48,5.6,1.07,2.12,2.86.81,14.46,1.03,18.9,2.9,57.93,24.84,92.34,87.43,85.14,14.91-1.72,20.84-7.81,32.97,4.87,9.27,9.7,16.29,22.04,26.55,31.03,29.69,26.01,85.48,23.56,121.97,16.37,12.15-2.4,25.6-5.85,35.73-13.06l-.84-4.43c6.98-6.07,9.26,2.32,12.66,6.58,12.35,15.43,61.64,27.43,81.25,29.5,32.62,3.44,67.26-2.41,96.01-18.23,12.33-6.79,23.8-15.51,32.36-26.69,5.9,7.64,15.68,9.87,24.57,12.33,47.51,13.1,121.69,14.5,164.16-13.35,12.46-8.17,24.22-22.3,34.95-32.97,1.8-1.79,4.22-2.96,5.94-5.13,1.47-1.85,3.37-7.48,5.13-7.43,1.14.03,1.69,1.67,3.35,1.23,1.27-.34,3.83-2.72,5.4-3.54,39-20.32,72-35.05,87.63-79.96,11.98-34.42,5.89-80.84-28.42-100.06-5.79-3.25-19.14-5.76-22.54-9.94-2.1-2.58-1.43-3.21.36-5.56,3.64-4.77,11.39-9.94,15.87-15.14,19.05-22.11,21.43-57.45,10.91-83.95-7.48-18.84-28.81-46.73-44.51-59.59-3.05-2.5-13.77-8.75-14.8-11.78-1.91-5.64,5.66-12.4,7.94-17.27,6.65-14.23.87-38.71-6.65-51.93-8.52-14.98-35.31-39.77-50.81-47.38-7.72-3.79-16-4.86-23.7-8.41-2.65-10.3-2.94-21.41-7.66-31.1-6.63-13.62-32.13-31.43-45.93-37.5-14.89-6.55-36.97-10.71-52.92-6.89-3.92.94-6.91,3.87-11.03,1.44-2.56-1.51-7.17-15.07-9.25-18.8-23.47-42.03-86-34.92-124.75-22.83-6.56,2.05-12,7.46-18.85,5.1l.64-4.66c-.38-1.34-6.78-4.38-8.38-4.94-27.62-9.69-64.47,2.2-89.91,14.25-7.61,3.61-12.48,8.49-19.08,12.67-6.88,4.35-20.01-.92-28.34-1.09-54.69-1.07-108.74,28.4-144.01,68.67-16.44,18.77-28.51,54.43-23.06,79.18.55,2.5,3.96,8.6,3.17,10.15-.85,1.67-6.59,1.93-9.04,2.82-5.18,1.89-15.33,10.29-19.78,14.18-30.5,26.69-59.21,70.32-55.75,112.55.77,9.37,5.7,18.58,3.35,28.47-10.99,11.57-21.47,22.7-30.55,35.89-24.54,35.63-53.7,96.52-24.8,136.74,4.42,6.15,5.46,4.92,11.38,7.81,4.45,2.18,1.54,3.77-2.41,3.16C6.5,531.34-.87,495.43.08,478.87c2.8-48.87,34.23-97.08,67.81-130.78,1.01-10.53-3.66-20.5-4-30.98-1.43-44.31,31.29-91.55,65.08-117.6,5.82-4.48,11.94-9.67,19.55-10.36-8.12-24-1.29-50.01,9.47-72.1,11.83-24.31,52.06-56.93,76.65-68.05,33.34-15.08,69.42-24.44,106.04-16.46,14.71-11.84,32.26-19.43,50.18-25.18,25.4-8.14,57.09-12.26,79.06,5.99,3.02-1.46,6.14-3,9.36-3.95,38.18-11.36,89.48-17.41,121.52,11.76Z"/>
    <path class="cls-1" d="M651.8,458.35c-62.26,58.49-129.98,77.72-214.99,74.11-47.6-2.02-97.83-16.2-137.46-42.68-27.63-18.47-49.44-36.25-62.97-67.7-16.67-38.74-10.6-119.03-3.45-160.71,4.3-25.03,12.34-47.36,19.71-71.47,1.76-.4,1.19.31,1.64.96,11.49,16.67,33.8,21.09,53.33,21.21,12.77.08,22.69-3.92,34.36-8.15-1.01,13.89,5.59,32.69,18.7,39.25,10.25,5.13,24.39,4.15,35.21.98,4.18-1.22,15.78-7.52,18.8-7.06,1.34.21,6.02,8.04,7.75,10.02,25.3,28.99,71.22,5.62,85.68-23.27,13.94,12.68,30.66,23.15,50.35,19.71,20.37-3.56,50.01-22.44,61.43-39.71,3.73-5.65,7.12-12.12,6.35-19.13,15.6,3.03,30.99-8.28,41.36-18.81l6.62-9.98c7.54,21.3,18.02,42.48,25.12,63.84,19.24,57.88,31.46,105.14,5.05,163.79-10.35,22.97-34.23,57.54-52.57,74.78ZM654.86,236.62c-49.86,3.23-91.11,37.46-110.73,81.96-2.13,4.82-7.95,13.88.54,15.22,9.48,1.5,24.47-2.6,33.86-5.18,33.58-9.24,70.12-30.44,93.1-56.77,2.43-2.79,18.7-24.53,18.84-26.27.23-2.8-4.48-6.96-7.2-7.53-7.43-1.56-20.76-1.92-28.41-1.42ZM420.78,344c1.89-1.57-2.17-12.19-3.15-14.57-16.8-40.85-63.49-67.12-105.67-72.99-12.98-1.81-35.96-3.18-48.45.07-5.42,1.41-.34,6.6,2.03,9.43,35.24,42.11,89.37,69.35,143.35,77.4,2.36.35,10.46,1.86,11.89.66ZM504.39,358.94c.61-.61-1.49-5.52-1.94-6.54-4.61-10.53-12.2-29.07-17.87-38.24-4.33-7-8.8-6-13.29.24-5.3,7.37-11.69,25.05-14.67,34.05-.85,2.57-5.3,15.9-4.34,17.19l5.22.72c1.19-7.59,15.75-49.41,20.69-51.71,1.14-.53,1.95,2.02,2.34,2.8,4.64,9.11,8.18,19.44,12.65,28.7,1.19,2.47,4.54,9.97,5.99,11.54,1.02,1.11,3.74,1.19,5.21,1.24ZM488.88,361.16c.13-2.93.46-7.81-3.68-7.38-.13,2.93-.46,7.81,3.68,7.38ZM469.69,360.4c-.44-1.71-.57-5.98-3.32-5.14-2.29.69-.52,7.97,3.32,5.14ZM504.94,474.3c-1.69-1.68-13.93,1.04-17.17,1.28-21.18,1.53-39.87-.69-60.33-6.11-8.66-2.3-34.22-9.25-39.42-15.26-1.38-1.59-.76-8.9-5.12-5.98-.57.38-2.88,2.75-3.29,3.35-2.85,4.22,1.53,10.37,4.06,4.07,5.45,4.61,10.66,8.15,17.38,10.67,27.96,10.51,60.46,17.28,90.4,14.42,2.36-.23,14.93-1.65,15.03-3.3.01-.17-1.31-2.91-1.55-3.14ZM442.22,489.77c-.99-.56-3.72.01-5.3-.25s-11.59-3.73-11.52-1.02c1.36.67,1.71,3.32,2.39,3.88,1.77,1.45,13.36,3.35,15.34,2.05,1.48-.96-.24-4.27-.91-4.66Z"/>
    <path class="cls-1" d="M221.61,379.62c-9.07-.89-16.65-6.63-22.57-13.29-.44-1,3.55-5.13,4.46-5.92,2.28-1.97,8.44-3.89,6.35-7.01-1.51-2.26-9.43-9.23-12.15-8.42-3.35,1,1.59,3.29.69,5.1-.48.96-7.17,6.33-7.78,5.91-5.9-11.37-13.7-24.5-15.33-37.46-2.35-18.66,2.18-56.32,28.15-53.97,9.7.87,20.57,13.38,20.42,23.12-.18,11.57-2.65,24.96-3.01,36.92-.55,18.37.44,36.75.77,55.03Z"/>
    <path class="cls-4" d="M164.29,463.51c10.78,10.8,22.96,2.53,30.31-7.18,14.92-19.72,22.48-44.53,27.02-68.59,1.04-.18,1.07,1.31,1.25,2.05,5.97,24.54-9.58,78.27-31.29,93.05-15.25,10.38-32.11,3.75-40.98-11.19-14.79-24.94-3.98-54.91,11.34-76.76,9.98-14.24,22.54-26.53,36.03-37.42-2.77,6.47-8.8,11-13.15,16.75-13.61,17.99-39.98,69.83-20.55,89.29Z"/>
    <path class="cls-4" d="M738.69,338.77c9.77,11.55,20.26,31.35,25.4,45.84,7.03,19.79,9.09,51.2-12.12,62.8-32.13,17.58-54.93-16.27-48.14-45.92l1.39-4.53c4.38,9.74,6.63,20.45,12.69,29.39,14.45,21.32,33.62,15.6,36.77-9.46,2.14-17.03-7.32-56.76-16.09-71.75-2.27-3.89-7.4-7.37-5.69-12.77,3.22,1.24,3.93,4.19,5.79,6.39Z"/>
    <path class="cls-1" d="M736.23,330.15c-1.45-.99,1.14-4.79-1.67-6.09-5.63-2.62-8.95,8.61-7.53,12.71.51,1.47,2.86,3.1,3.18,4.26.76,2.81-7.09,11.37-9.49,13.49,4.61-22.33,6.02-44.76,1.99-67.33-.9-5.06-4.55-15.06-4.26-19.4.3-4.47,10.14-12.48,14.41-13.71,7.77-2.24,14.56,1.09,17.22,8.69,4.99,14.27,2.43,37.17-3.17,51.13-.81,2.01-7.19,14.66-8.11,15.51-.68.64-1.91,1.19-2.57.74Z"/>
    <path class="cls-3" d="M654.86,236.62c7.65-.5,20.98-.14,28.41,1.42,2.72.57,7.43,4.73,7.2,7.53-.14,1.74-16.4,23.48-18.84,26.27-22.97,26.33-59.51,47.53-93.1,56.77-9.4,2.59-24.38,6.69-33.86,5.18-8.49-1.35-2.67-10.4-.54-15.22,19.61-44.51,60.87-78.74,110.73-81.96ZM684.54,243.05l-22.89-1.48c-.08,1.15,1.5.91,2.24,1.8,2.57,3.09,1.33,7.24.34,10.74-6.28,22.07-61.85,59.23-84.29,60.25-1.73.08-8.6-.27-10.03-.64-4.12-1.05-7.07-7.35-7.22-11.3-.07-1.81.53-2.96.69-4.48.08-.78.55-1.95-.65-1.75l-16.99,33.21c22.27-1.8,43.78-8.92,63.76-18.55,21.26-10.25,41.67-24.58,57.34-42.32,4.16-4.71,14.53-17.66,17.02-22.85.43-.9.94-1.51.68-2.63Z"/>
    <path class="cls-3" d="M420.78,344c-1.43,1.19-9.53-.31-11.89-.66-53.98-8.04-108.11-35.28-143.35-77.4-2.37-2.83-7.45-8.03-2.03-9.43,12.49-3.24,35.47-1.87,48.45-.07,42.19,5.87,88.88,32.14,105.67,72.99.98,2.38,5.04,13,3.15,14.57ZM305.04,259.29c-7.23-.59-14.49-1.09-21.77-.74-3.08.15-7.92.49-10.88.93-1.12.17-4.65.66-4.25,2.37,12.11,14.04,25.53,26.84,40.67,37.6,10.81,7.68,24.36,16.49,36.35,21.97,21.94,10.03,46.74,15.48,70.64,18.32-2.24-9.87-7.4-18.08-12.57-26.56l-1.47.37c.25,9.67-6.92,11.23-15.12,10.69-22.78-1.52-77.53-24.55-91.58-42.79-5.06-6.56-3.36-15.05,3.82-19.09,2.05-1.15,5.01-1.02,6.16-3.06Z"/>
    <path class="cls-3" d="M504.94,474.3c.24.23,1.56,2.97,1.55,3.14-.11,1.65-12.68,3.07-15.03,3.3-29.94,2.87-62.44-3.91-90.4-14.42-6.72-2.53-11.93-6.07-17.38-10.67-2.53,6.31-6.91.15-4.06-4.07.41-.6,2.72-2.97,3.29-3.35,4.37-2.93,3.74,4.38,5.12,5.98,5.2,6,30.76,12.96,39.42,15.26,20.45,5.42,39.15,7.63,60.33,6.11,3.24-.23,15.48-2.95,17.17-1.28Z"/>
    <path class="cls-3" d="M504.39,358.94c-1.47-.05-4.19-.14-5.21-1.24-1.45-1.57-4.8-9.08-5.99-11.54-4.48-9.26-8.02-19.58-12.65-28.7-.4-.78-1.21-3.33-2.34-2.8-4.94,2.29-19.5,44.12-20.69,51.71l-5.22-.72c-.96-1.29,3.48-14.61,4.34-17.19,2.99-9,9.37-26.68,14.67-34.05,4.49-6.24,8.96-7.24,13.29-.24,5.67,9.16,13.26,27.7,17.87,38.24.45,1.02,2.55,5.93,1.94,6.54Z"/>
    <path class="cls-3" d="M442.22,489.77c.68.38,2.39,3.69.91,4.66-1.98,1.29-13.57-.61-15.34-2.05-.67-.55-1.02-3.21-2.39-3.88-.07-2.72,10,.76,11.52,1.02s4.31-.31,5.3.25Z"/>
    <path class="cls-3" d="M488.88,361.16c-4.14.44-3.81-4.45-3.68-7.38,4.14-.44,3.81,4.45,3.68,7.38Z"/>
    <path class="cls-3" d="M469.69,360.4c-3.83,2.83-5.6-4.45-3.32-5.14,2.75-.83,2.88,3.43,3.32,5.14Z"/>
    <path class="cls-2" d="M684.54,243.05c.25,1.12-.25,1.74-.68,2.63-2.49,5.19-12.86,18.14-17.02,22.85-15.67,17.74-36.08,32.07-57.34,42.32-19.98,9.63-41.49,16.76-63.76,18.55l16.99-33.21c1.2-.2.73.97.65,1.75-.16,1.52-.75,2.67-.69,4.48.15,3.95,3.1,10.26,7.22,11.3,1.44.36,8.31.72,10.03.64,22.44-1.02,78.01-38.19,84.29-60.25,1-3.5,2.24-7.65-.34-10.74-.74-.89-2.32-.65-2.24-1.8l22.89,1.48Z"/>
    <path class="cls-2" d="M305.04,259.29c-1.15,2.04-4.11,1.91-6.16,3.06-7.18,4.04-8.88,12.53-3.82,19.09,14.05,18.23,68.8,41.27,91.58,42.79,8.2.55,15.37-1.02,15.12-10.69l1.47-.37c5.17,8.48,10.32,16.69,12.57,26.56-23.89-2.84-48.7-8.29-70.64-18.32-11.99-5.48-25.54-14.29-36.35-21.97-15.14-10.76-28.55-23.56-40.67-37.6-.4-1.7,3.13-2.2,4.25-2.37,2.96-.44,7.8-.78,10.88-.93,7.29-.35,14.54.14,21.77.74Z"/>
  </g>
</svg>